<svg xmlns="http://www.w3.org/2000/svg" viewBox="0 0 540.508 117.2604" height="100%" id="svg2" version="1.1" xmlns:dc="http://purl.org/dc/elements/1.1/" xmlns:cc="http://creativecommons.org/ns#" xmlns:rdf="http://www.w3.org/1999/02/22-rdf-syntax-ns#" xmlns:svg="http://www.w3.org/2000/svg" xml:space="preserve"><metadata id="metadata8"><rdf><work rdf:about=""><format>image/svg+xml</format><type rdf:resource="http://purl.org/dc/dcmitype/StillImage"></type></work></rdf></metadata><defs id="defs6"><clipPath id="clipPath18" clipPathUnits="userSpaceOnUse"><path id="path16" d="M 0,87.945 H 405.381 V 0 H 0 Z"></path></clipPath></defs><g transform="matrix(1.3333333,0,0,-1.3333333,0,117.2604)" id="g10"><g id="g12"><g clip-path="url(#clipPath18)" id="g14"><g transform="translate(100.0775,23.3667)" id="g20"><path id="path22" style="fill:#000000;fill-opacity:1;fill-rule:nonzero;stroke:none" d="m 0,0 c 2.37,-2.371 5.194,-3.556 8.472,-3.556 3.348,0 6.172,1.15 8.473,3.452 2.37,2.369 3.557,5.23 3.557,8.576 v 48.43 H 32.74 V 8.472 c 0,-6.625 -2.372,-12.342 -7.113,-17.154 -4.882,-4.672 -10.601,-7.008 -17.155,-7.008 -6.694,0 -12.413,2.336 -17.154,7.008 z"></path></g><g transform="translate(253.7166,80.2684)" id="g24"><path id="path26" style="fill:#000000;fill-opacity:1;fill-rule:nonzero;stroke:none" d="M 0,0 22.802,-45.501 45.605,0 H 59.098 L 22.802,-72.592 -13.493,0 Z"></path></g><g transform="translate(193.4476,7.6769)" id="g28"><path id="path30" style="fill:#000000;fill-opacity:1;fill-rule:nonzero;stroke:none" d="M 0,0 -22.802,45.501 -45.605,0 H -59.098 L -22.802,72.592 13.493,0 Z"></path></g><path id="path32" style="fill:#000000;fill-opacity:1;fill-rule:nonzero;stroke:none" d="m 321.494,80.268 h 12.029 V 7.676 h -12.029 z"></path><g transform="translate(366.0518,37.9059)" id="g34"><path id="path36" style="fill:#000000;fill-opacity:1;fill-rule:nonzero;stroke:none" d="m 0,0 c -5.857,0 -10.844,2.056 -14.958,6.171 -4.115,4.114 -6.171,9.135 -6.171,15.062 0,5.788 2.056,10.738 6.171,14.853 4.044,4.185 9.03,6.277 14.958,6.277 H 39.329 V 30.229 H 0 c -1.255,0 -2.441,-0.227 -3.556,-0.68 C -4.672,29.095 -5.649,28.451 -6.485,27.614 -7.321,26.777 -7.967,25.8 -8.42,24.685 -8.874,23.569 -9.1,22.418 -9.1,21.233 c 0,-2.51 0.871,-4.672 2.615,-6.484 1.742,-1.815 3.904,-2.72 6.485,-2.72 h 18.095 c 5.858,0 10.843,-2.058 14.958,-6.172 4.184,-4.115 6.276,-9.099 6.276,-14.957 0,-5.789 -2.092,-10.774 -6.276,-14.958 -4.115,-4.115 -9.1,-6.171 -14.958,-6.171 h -39.224 v 12.134 h 39.224 c 1.256,0 2.441,0.225 3.557,0.679 1.114,0.453 2.092,1.081 2.929,1.883 0.837,0.801 1.481,1.761 1.935,2.877 0.453,1.114 0.68,2.301 0.68,3.556 0,2.44 -0.907,4.566 -2.72,6.381 C 22.733,-0.907 20.606,0 18.095,0 Z"></path></g><g transform="translate(233.0315,42.4039)" id="g38"><path id="path40" style="fill:#000000;fill-opacity:1;fill-rule:nonzero;stroke:none" d="m 0,0 c 2.858,4.114 4.288,8.682 4.288,13.702 0,6.625 -2.371,12.307 -7.112,17.05 -4.743,4.741 -10.426,7.113 -17.05,7.113 h -31.309 l 7.042,-12.156 v 0.022 h 24.267 c 3.277,0 6.101,-1.186 8.472,-3.556 2.37,-2.372 3.557,-5.196 3.557,-8.473 0,-3.347 -1.187,-6.207 -3.557,-8.577 -2.371,-2.371 -5.195,-3.556 -8.472,-3.556 l -10.307,0.044 21.053,-36.34 H 4.288 L -10.669,-8.682 C -6.346,-6.94 -2.79,-4.045 0,0"></path></g><g transform="translate(42.0407,81.4219)" id="g42"><path id="path44" style="fill:#b03a3b;fill-opacity:1;fill-rule:nonzero;stroke:none" d="M 0,0 V 6.523 C -15.114,5.726 -28.224,-2.553 -35.625,-14.645 l 5.69,-3.256 C -23.674,-7.752 -12.683,-0.787 0,0"></path></g><g transform="translate(76.7783,63.5212)" id="g46"><path id="path48" style="fill:#b03a3b;fill-opacity:1;fill-rule:nonzero;stroke:none" d="M 0,0 5.69,3.255 C -1.711,15.348 -14.821,23.627 -29.935,24.424 V 17.901 C -17.253,17.114 -6.262,10.149 0,0"></path></g><g transform="translate(6.566,43.9726)" id="g50"><path id="path52" style="fill:#b03a3b;fill-opacity:1;fill-rule:nonzero;stroke:none" d="m 0,0 c 0,5.464 1.188,10.649 3.306,15.332 l -5.714,3.269 C -5.07,12.949 -6.566,6.649 -6.566,0 c 0,-7.699 1.998,-14.933 5.502,-21.229 l 5.686,3.253 C 1.676,-12.638 0,-6.513 0,0"></path></g><g transform="translate(46.8428,6.5234)" id="g54"><path id="path56" style="fill:#b03a3b;fill-opacity:1;fill-rule:nonzero;stroke:none" d="m 0,0 v -6.523 c 14.063,0.742 26.381,7.966 33.99,18.707 l -5.711,3.267 C 21.837,6.644 11.633,0.722 0,0"></path></g><g transform="translate(84.7256,62.5736)" id="g58"><path id="path60" style="fill:#b03a3b;fill-opacity:1;fill-rule:nonzero;stroke:none" d="m 0,0 -5.714,-3.269 c 2.118,-4.683 3.306,-9.868 3.306,-15.332 0,-6.513 -1.676,-12.638 -4.621,-17.976 l 5.685,-3.253 C 2.16,-33.534 4.158,-26.3 4.158,-18.601 4.158,-11.952 2.662,-5.652 0,0"></path></g><g transform="translate(13.7618,21.9747)" id="g62"><path id="path64" style="fill:#b03a3b;fill-opacity:1;fill-rule:nonzero;stroke:none" d="m 0,0 -5.711,-3.267 c 7.609,-10.741 19.928,-17.966 33.99,-18.708 v 6.524 C 16.646,-14.73 6.442,-8.807 0,0"></path></g><g transform="translate(44.4419,17.2296)" id="g66"><path id="path68" style="fill:#cd4a4a;fill-opacity:1;fill-rule:nonzero;stroke:none" d="m 0,0 c -14.543,0 -26.332,11.682 -26.332,26.093 0,14.411 11.789,26.093 26.332,26.093 14.543,0 26.332,-11.682 26.332,-26.093 C 26.332,11.682 14.543,0 0,0 m 0,58.328 c -17.966,0 -32.53,-14.432 -32.53,-32.235 0,-17.803 14.564,-32.235 32.53,-32.235 17.966,0 32.53,14.432 32.53,32.235 0,17.803 -14.564,32.235 -32.53,32.235"></path></g></g></g></g></svg>