<svg xmlns="http://www.w3.org/2000/svg" viewBox="0 0 3193.5466 828.86401" id="svg2" version="1.1" xmlns:dc="http://purl.org/dc/elements/1.1/" xmlns:cc="http://creativecommons.org/ns#" xmlns:rdf="http://www.w3.org/1999/02/22-rdf-syntax-ns#" xmlns:svg="http://www.w3.org/2000/svg" xml:space="preserve"><metadata id="metadata8"><rdf><work rdf:about=""><format>image/svg+xml</format><type rdf:resource="http://purl.org/dc/dcmitype/StillImage"></type></work></rdf></metadata><defs id="defs6"><clipPath id="clipPath18" clipPathUnits="userSpaceOnUse"><path id="path16" d="M 0,621.648 H 2395.162 V 0 H 0 Z"></path></clipPath></defs><g transform="matrix(1.3333333,0,0,-1.3333333,0,828.864)" id="g10"><g id="g12"><g clip-path="url(#clipPath18)" id="g14"><g transform="translate(606.2565,165.5637)" id="g20"><path id="path22" style="fill:#ffffff;fill-opacity:1;fill-rule:nonzero;stroke:none" d="m 0,0 c 0,-16.392 -14.985,-29.035 -32.78,-29.035 -17.327,0 -32.311,13.112 -32.777,29.035 v 284.24 c 0.466,15.919 15.45,29.031 32.777,29.031 17.795,0 32.78,-12.643 32.78,-29.031 z"></path></g><g transform="translate(728.0107,165.5637)" id="g24"><path id="path26" style="fill:#ffffff;fill-opacity:1;fill-rule:nonzero;stroke:none" d="m 0,0 c 0,-16.392 -14.985,-29.035 -32.776,-29.035 -17.327,0 -32.311,13.112 -32.78,29.035 v 165.297 c 0.469,15.923 15.453,29.035 32.78,29.035 C -14.985,194.332 0,181.689 0,165.297 Z m -32.776,310.929 c 22.01,0 39.801,-16.388 39.801,-37.929 0,-21.54 -17.791,-38.398 -39.801,-38.398 -22.01,0 -40.74,16.858 -40.74,38.398 0,21.541 18.73,37.929 40.74,37.929"></path></g><g transform="translate(891.9166,192.7221)" id="g28"><path id="path30" style="fill:#ffffff;fill-opacity:1;fill-rule:nonzero;stroke:none" d="m 0,0 c 29.504,0 53.383,26.224 53.383,55.255 0,29.031 -23.879,55.256 -53.383,55.256 -32.776,0 -51.51,-26.225 -51.51,-55.256 C -51.51,26.224 -32.776,0 0,0 m -94.122,-79.138 c 11.708,10.771 31.377,8.429 40.274,-1.407 12.174,-13.108 30.904,-23.879 48.7,-23.879 49.637,0 63.214,34.184 60.407,77.731 v 6.086 c -14.05,-24.816 -40.739,-37.459 -67.902,-37.459 -55.724,0 -106.296,41.209 -106.296,113.79 0,72.582 50.572,113.322 106.296,113.322 14.051,0 46.827,-6.087 65.561,-35.122 v 4.214 c 0.465,15.923 15.449,29.035 32.776,29.035 17.796,0 32.78,-12.643 32.78,-29.035 V -23.413 c 0,-94.123 -45.892,-139.546 -123.622,-139.546 -37.933,0 -71.179,16.857 -92.72,43.551 -8.897,11.235 -7.959,29.969 3.746,40.27"></path></g><g transform="translate(1216.4523,255.4718)" id="g32"><path id="path34" style="fill:#ffffff;fill-opacity:1;fill-rule:nonzero;stroke:none" d="m 0,0 c 0,28.562 -20.611,43.077 -40.275,43.077 -20.602,0 -43.081,-10.77 -43.081,-44.015 v -88.97 c 0,-16.392 -14.981,-29.035 -32.776,-29.035 -17.327,0 -32.316,13.112 -32.785,29.035 v 284.24 c 0.469,15.919 15.458,29.031 32.785,29.031 17.795,0 32.776,-12.643 32.776,-29.031 V 67.898 c 8.898,27.159 40.275,38.398 60.877,38.398 57.593,0 88.031,-37.929 88.031,-103.958 v -92.246 c 0,-16.392 -14.98,-29.035 -32.776,-29.035 -17.326,0 -32.315,13.112 -32.776,29.035 z"></path></g><g transform="translate(1354.603,357.5538)" id="g36"><path id="path38" style="fill:#ffffff;fill-opacity:1;fill-rule:nonzero;stroke:none" d="m 0,0 v 57.128 c 0.469,15.923 15.45,29.035 32.776,29.035 17.796,0 32.785,-12.643 32.785,-29.035 V 0 h 24.816 c 13.113,0 23.409,-11.709 23.409,-25.755 0,-13.581 -10.296,-25.286 -23.409,-25.755 H 65.561 v -140.48 c 0,-16.392 -14.989,-29.035 -32.785,-29.035 -17.326,0 -32.307,13.112 -32.776,29.035 v 140.48 h -17.796 c -13.112,0.469 -23.409,12.174 -23.409,25.755 0,14.046 10.297,25.755 23.409,25.755 z"></path></g><g transform="translate(1623.4143,175.8649)" id="g40"><path id="path42" style="fill:#ffffff;fill-opacity:1;fill-rule:nonzero;stroke:none" d="m 0,0 c 39.336,0 70.705,29.969 70.705,73.051 0,43.546 -31.369,71.643 -70.705,71.643 -35.122,0 -72.582,-24.816 -72.582,-71.643 C -72.582,26.689 -38.867,0 0,0 m -73.051,148.909 c 14.52,24.82 44.95,37.463 76.796,37.463 60.408,0 110.511,-44.019 110.511,-113.79 0,-69.306 -51.041,-114.26 -110.98,-114.26 -30.439,0 -61.807,13.581 -76.327,38.398 v -14.516 c 0,-11.708 -9.367,-21.54 -21.541,-21.54 -11.704,0 -21.071,9.832 -21.071,21.54 v 299.225 c 0,11.709 9.367,21.541 21.071,21.541 12.174,0 21.541,-9.832 21.541,-21.541 z"></path></g><g transform="translate(1943.2582,171.6505)" id="g44"><path id="path46" style="fill:#ffffff;fill-opacity:1;fill-rule:nonzero;stroke:none" d="m 0,0 c -13.112,-26.224 -44.489,-37.464 -68.367,-37.464 -54.317,0 -84.287,35.591 -84.287,96.934 v 107.234 c 0,11.705 9.359,21.541 21.541,21.541 11.705,0 21.072,-9.836 21.072,-21.541 V 62.281 c 0,-36.526 18.256,-58.067 48.225,-58.067 C -30.908,4.214 0,21.541 0,67.898 v 98.806 c 0,11.705 9.367,21.541 21.541,21.541 11.704,0 21.071,-9.836 21.071,-21.541 V -13.581 c 0,-11.709 -9.367,-21.541 -21.071,-21.541 C 9.367,-35.122 0,-25.29 0,-13.581 Z"></path></g><g transform="translate(2096.3977,158.0692)" id="g48"><path id="path50" style="fill:#ffffff;fill-opacity:1;fill-rule:nonzero;stroke:none" d="m 0,0 c 0,-11.709 -9.367,-21.541 -21.541,-21.541 -11.704,0 -21.071,9.832 -21.071,21.541 v 299.225 c 0,11.708 9.367,21.54 21.071,21.54 12.174,0 21.541,-9.832 21.541,-21.54 z"></path></g><g transform="translate(2280.906,175.8649)" id="g52"><path id="path54" style="fill:#ffffff;fill-opacity:1;fill-rule:nonzero;stroke:none" d="m 0,0 c 39.336,0 70.705,29.969 70.705,73.051 0,43.546 -31.369,71.643 -70.705,71.643 -35.122,0 -72.582,-24.816 -72.582,-71.643 C -72.582,26.689 -38.867,0 0,0 m -73.051,148.909 c 14.52,24.82 44.95,37.463 76.796,37.463 60.408,0 110.511,-44.019 110.511,-113.79 0,-69.306 -51.041,-114.26 -110.98,-114.26 -30.439,0 -61.807,13.581 -76.327,38.398 v -14.516 c 0,-11.708 -9.367,-21.54 -21.541,-21.54 -11.704,0 -21.071,9.832 -21.071,21.54 v 299.225 c 0,11.709 9.367,21.541 21.071,21.541 12.174,0 21.541,-9.832 21.541,-21.541 z"></path></g><g transform="translate(92.6495,36.9117)" id="g56"><path id="path58" style="fill:#ffffff;fill-opacity:1;fill-rule:nonzero;stroke:none" d="m 0,0 232.575,144.095 c 3.458,2.143 7.925,-0.344 7.925,-4.412 v -22.86 c 0,-3.442 -1.78,-6.638 -4.705,-8.45 L 2.57,-36.125 c -3.458,-2.143 -7.925,0.344 -7.925,4.413 v 22.094 c 0,3.917 2.026,7.555 5.355,9.618"></path></g><g transform="translate(209.3341,621.6481)" id="g60"><path id="path62" style="fill:#ebda31;fill-opacity:1;fill-rule:nonzero;stroke:none" d="m 0,0 c -115.427,0 -209.334,-93.907 -209.334,-209.329 0,-67.706 32.47,-130.61 87.294,-169.985 v -70.743 l -0.011,-29.629 c -0.001,-4.798 5.265,-7.733 9.345,-5.209 L 20.47,-402.47 c 4.244,2.627 6.827,7.264 6.827,12.255 v 156.944 c 0,2.217 -1.797,4.015 -4.014,4.015 h -52.96 l 50.652,69.987 c 1.687,2.332 1.165,5.589 -1.167,7.276 l -19.491,14.102 c -2.332,1.686 -5.588,1.164 -7.275,-1.167 l -85.608,-118.299 c -1.921,-2.654 -0.024,-6.368 3.253,-6.368 h 82.142 v -115.312 l -82.801,-51.194 v 67.995 l -7.223,4.75 c -50.138,32.965 -80.071,88.353 -80.071,148.157 0,97.738 79.517,177.261 177.266,177.261 97.738,0 177.261,-79.523 177.261,-177.261 0,-59.104 -29.323,-114.117 -78.437,-147.166 l -7.078,-4.76 v -27.459 l -210.881,-130.33 c -1.805,-1.115 -2.904,-3.086 -2.904,-5.208 l -0.001,-23.299 c 0,-4.795 5.262,-7.729 9.341,-5.208 l 231.785,143.226 c 2.939,1.816 4.728,5.025 4.728,8.479 v 22.941 c 53.708,39.427 85.515,101.882 85.515,168.784 C 209.329,-93.907 115.422,0 0,0"></path></g><g transform="translate(147.1185)" id="g64"><path id="path66" style="fill:#ffffff;fill-opacity:1;fill-rule:nonzero;stroke:none" d="m 0,0 c -1.928,0 -2.643,2.532 -0.999,3.54 l 179.105,109.796 c 3.458,2.143 7.925,-0.344 7.925,-4.412 V 86.063 c 0,-3.441 -1.78,-6.637 -4.705,-8.449 L 56.494,1.059 C 55.364,0.367 54.065,0 52.74,0 Z"></path></g></g></g></g></svg>